<svg xmlns="http://www.w3.org/2000/svg" viewBox="0 0 421.78 272.83"><title>black logo icon</title><g id="Layer_2" data-name="Layer 2"><g id="Layer_1-2" data-name="Layer 1"><path d="M421.78,48.31h-219c-82.9,0-118,36.78-118,86.19,0,54.89,36.23,90,118,90h219v48.31H206c-113.63,0-160.3-59.83-160.3-140C45.75,57.09,89.12,0,203.85,0H421.78Z"/><path d="M0,224.52H219c82.9,0,118-36.78,118-86.19,0-54.9-36.23-90-118-90H0V0H215.74C329.37,0,376,59.84,376,140c0,75.76-43.37,132.85-158.1,132.85H0Z"/></g></g></svg>