<svg xmlns="http://www.w3.org/2000/svg" viewBox="0 0 647.99 395.29"><title>black logo text</title><g id="Layer_2" data-name="Layer 2"><g id="Layer_1-2" data-name="Layer 1"><path d="M23.81.27v108c0,40.85,18.13,58.17,42.48,58.17,27.05,0,44.37-17.86,44.37-58.17V.27h23.81V106.6c0,56-29.49,79-69,79C28.14,185.6,0,164.22,0,107.68V.27Z"/><path d="M174.51,87.12c0-13.53-.27-24.62-1.08-35.44h21.1l1.35,21.64h.54c6.49-12.45,21.64-24.62,43.29-24.62,18.13,0,46.27,10.82,46.27,55.73v78.19H262.17V107.14c0-21.1-7.85-38.69-30.3-38.69-15.69,0-27.87,11.09-31.92,24.35a34.2,34.2,0,0,0-1.62,11.09v78.73H174.51Z"/><path d="M351.19,14.88C351.46,23,345.5,29.49,336,29.49c-8.39,0-14.34-6.5-14.34-14.61A14.51,14.51,0,0,1,336.58,0C345.5,0,351.19,6.49,351.19,14.88ZM324.67,182.62V51.68h23.81V182.62Z"/><path d="M506.49,116.07c0,48.43-33.55,69.53-65.2,69.53-35.44,0-62.77-26-62.77-67.37,0-43.83,28.68-69.53,64.93-69.53C481.05,48.7,506.49,76,506.49,116.07Zm-103.89,1.35c0,28.68,16.51,50.32,39.77,50.32,22.73,0,39.77-21.37,39.77-50.86,0-22.19-11.09-50.32-39.23-50.32S402.59,92.53,402.59,117.42Z"/><path d="M536.52,87.12c0-13.53-.27-24.62-1.08-35.44h21.1l1.35,21.64h.54c6.49-12.45,21.64-24.62,43.29-24.62,18.13,0,46.26,10.82,46.26,55.73v78.19H624.18V107.14c0-21.1-7.85-38.69-30.3-38.69C578.19,68.45,566,79.54,562,92.8a34.26,34.26,0,0,0-1.62,11.09v78.73H536.52Z"/><path d="M65.48,212.39c10.28-2.16,26.51-3.79,43-3.79,23.54,0,38.69,4.06,50.05,13.26,9.47,7,15.15,17.85,15.15,32.2,0,17.59-11.63,33-30.84,40v.54c17.32,4.33,37.61,18.67,37.61,45.72A49.15,49.15,0,0,1,165,376.89c-12.72,11.63-33.28,17-63,17a275,275,0,0,1-36.52-2.16ZM89,287.07h21.37c24.89,0,39.5-13,39.5-30.57,0-21.37-16.23-29.76-40-29.76-10.82,0-17,.81-20.83,1.62Zm0,87.39c4.6.81,11.36,1.08,19.75,1.08,24.35,0,46.8-8.93,46.8-35.44,0-24.89-21.37-35.17-47.08-35.17H89Z"/><path d="M283.82,392.31l-1.89-16.5h-.81c-7.31,10.28-21.38,19.48-40,19.48-26.51,0-40-18.67-40-37.61,0-31.65,28.14-49,78.73-48.7v-2.7c0-10.82-3-30.3-29.76-30.3-12.17,0-24.89,3.79-34.09,9.74L210.5,270c10.82-7,26.51-11.63,43-11.63,40,0,49.78,27.33,49.78,53.57v49c0,11.36.54,22.46,2.16,31.39Zm-3.52-66.83c-26-.54-55.46,4.06-55.46,29.49,0,15.42,10.28,22.73,22.45,22.73,17,0,27.87-10.82,31.66-21.92a24.9,24.9,0,0,0,1.35-7.58Z"/><path d="M341.72,296.8c0-13.53-.27-24.62-1.08-35.44h21.1L363.09,283h.54c6.49-12.44,21.64-24.62,43.29-24.62,18.13,0,46.26,10.82,46.26,55.73v78.19H429.38V316.83c0-21.1-7.85-38.69-30.3-38.69-15.69,0-27.87,11.09-31.92,24.35a34.25,34.25,0,0,0-1.62,11.09v78.73H341.72Z"/><path d="M515.42,321.43H516c3.25-4.6,7.85-10.28,11.63-14.88L566,261.36h28.68L544.1,315.2l57.63,77.11H572.78l-45.18-62.77-12.17,13.53v49.24H491.88V200.22h23.54Z"/></g></g></svg>