<svg xmlns="http://www.w3.org/2000/svg" xmlns:xlink="http://www.w3.org/1999/xlink" viewBox="0 0 647.99 729.32"><defs><style>.cls-1{fill:url(#linear-gradient);}.cls-2{fill:url(#linear-gradient-2);}.cls-3{fill:url(#linear-gradient-3);}.cls-4{fill:url(#linear-gradient-4);}.cls-5{fill:url(#linear-gradient-5);}.cls-6{fill:url(#linear-gradient-6);}.cls-7{fill:url(#linear-gradient-7);}.cls-8{fill:url(#linear-gradient-8);}.cls-9{fill:url(#linear-gradient-9);}.cls-10{fill:url(#linear-gradient-10);}.cls-11{fill:url(#linear-gradient-11);}</style><linearGradient id="linear-gradient" x1="-1131.27" y1="-822.24" x2="2288.05" y2="1325.33" gradientUnits="userSpaceOnUse"><stop offset="0" stop-color="blue"/><stop offset="1"/></linearGradient><linearGradient id="linear-gradient-2" x1="-1171.49" y1="-758.2" x2="2247.83" y2="1389.37" xlink:href="#linear-gradient"/><linearGradient id="linear-gradient-3" x1="-1348.67" y1="-476.1" x2="2070.64" y2="1671.47" xlink:href="#linear-gradient"/><linearGradient id="linear-gradient-4" x1="-1323.64" y1="-515.96" x2="2095.68" y2="1631.61" xlink:href="#linear-gradient"/><linearGradient id="linear-gradient-5" x1="-1278.99" y1="-587.05" x2="2140.33" y2="1560.52" xlink:href="#linear-gradient"/><linearGradient id="linear-gradient-6" x1="-1259.59" y1="-617.93" x2="2159.73" y2="1529.64" xlink:href="#linear-gradient"/><linearGradient id="linear-gradient-7" x1="-1221.23" y1="-679.01" x2="2198.09" y2="1468.56" xlink:href="#linear-gradient"/><linearGradient id="linear-gradient-8" x1="-1438.45" y1="-333.16" x2="1980.87" y2="1814.41" xlink:href="#linear-gradient"/><linearGradient id="linear-gradient-9" x1="-1408.65" y1="-380.61" x2="2010.67" y2="1766.96" xlink:href="#linear-gradient"/><linearGradient id="linear-gradient-10" x1="-1370.78" y1="-440.9" x2="2048.54" y2="1706.67" xlink:href="#linear-gradient"/><linearGradient id="linear-gradient-11" x1="-1323" y1="-516.97" x2="2096.32" y2="1630.6" xlink:href="#linear-gradient"/></defs><title>colored full logo</title><g id="Layer_2" data-name="Layer 2"><g id="Layer_1-2" data-name="Layer 1"><path class="cls-1" d="M534.89,48.31h-219c-82.9,0-118,36.78-118,86.19,0,54.89,36.23,90,118,90h219v48.31H319.15c-113.63,0-160.3-59.83-160.3-140C158.85,57.09,202.22,0,316.95,0H534.89Z"/><path class="cls-2" d="M113.1,224.52h219c82.9,0,118-36.78,118-86.19,0-54.9-36.23-90-118-90h-219V0H328.84c113.63,0,160.3,59.84,160.3,140,0,75.76-43.37,132.85-158.1,132.85H113.1Z"/><path class="cls-3" d="M23.81,334.3v108c0,40.85,18.13,58.17,42.48,58.17,27.05,0,44.37-17.86,44.37-58.17v-108h23.81V440.63c0,56-29.49,79-69,79C28.14,519.63,0,498.25,0,441.71V334.3Z"/><path class="cls-4" d="M174.51,421.15c0-13.53-.27-24.62-1.08-35.44h21.1l1.35,21.64h.54c6.49-12.45,21.64-24.62,43.29-24.62,18.13,0,46.27,10.82,46.27,55.73v78.19H262.17V441.17c0-21.1-7.85-38.69-30.3-38.69-15.69,0-27.87,11.09-31.92,24.35a34.2,34.2,0,0,0-1.62,11.09v78.73H174.51Z"/><path class="cls-5" d="M351.19,348.91c.27,8.12-5.68,14.61-15.15,14.61-8.39,0-14.34-6.5-14.34-14.61A14.51,14.51,0,0,1,336.58,334C345.5,334,351.19,340.52,351.19,348.91ZM324.67,516.65V385.7h23.81V516.65Z"/><path class="cls-6" d="M506.49,450.1c0,48.43-33.55,69.53-65.2,69.53-35.44,0-62.77-26-62.77-67.37,0-43.83,28.68-69.53,64.93-69.53C481.05,382.73,506.49,410.05,506.49,450.1Zm-103.89,1.35c0,28.68,16.51,50.32,39.77,50.32,22.73,0,39.77-21.37,39.77-50.86,0-22.19-11.09-50.32-39.23-50.32S402.59,426.56,402.59,451.45Z"/><path class="cls-7" d="M536.52,421.15c0-13.53-.27-24.62-1.08-35.44h21.1l1.35,21.64h.54c6.49-12.45,21.64-24.62,43.29-24.62,18.13,0,46.26,10.82,46.26,55.73v78.19H624.18V441.17c0-21.1-7.85-38.69-30.3-38.69-15.69,0-27.87,11.09-31.92,24.35a34.26,34.26,0,0,0-1.62,11.09v78.73H536.52Z"/><path class="cls-8" d="M65.48,546.42c10.28-2.16,26.51-3.79,43-3.79,23.54,0,38.69,4.06,50.05,13.26,9.47,7,15.15,17.85,15.15,32.2,0,17.59-11.63,33-30.84,40v.54c17.32,4.33,37.61,18.67,37.61,45.72A49.15,49.15,0,0,1,165,710.92c-12.72,11.63-33.28,17-63,17a275,275,0,0,1-36.52-2.16ZM89,621.09h21.37c24.89,0,39.5-13,39.5-30.57,0-21.37-16.23-29.76-40-29.76-10.82,0-17,.81-20.83,1.62Zm0,87.39c4.6.81,11.36,1.08,19.75,1.08,24.35,0,46.8-8.93,46.8-35.44,0-24.89-21.37-35.17-47.08-35.17H89Z"/><path class="cls-9" d="M283.82,726.34l-1.89-16.5h-.81c-7.31,10.28-21.38,19.48-40,19.48-26.51,0-40-18.67-40-37.61,0-31.65,28.14-49,78.73-48.7v-2.7c0-10.82-3-30.3-29.76-30.3-12.17,0-24.89,3.79-34.09,9.74L210.5,604c10.82-7,26.51-11.63,43-11.63,40,0,49.78,27.33,49.78,53.57v49c0,11.36.54,22.46,2.16,31.39Zm-3.52-66.83c-26-.54-55.46,4.06-55.46,29.49,0,15.42,10.28,22.73,22.45,22.73,17,0,27.87-10.82,31.66-21.92a24.9,24.9,0,0,0,1.35-7.58Z"/><path class="cls-10" d="M341.72,630.83c0-13.53-.27-24.62-1.08-35.44h21.1L363.09,617h.54c6.49-12.44,21.64-24.62,43.29-24.62,18.13,0,46.26,10.82,46.26,55.73v78.19H429.38V650.85c0-21.1-7.85-38.69-30.3-38.69-15.69,0-27.87,11.09-31.92,24.35a34.25,34.25,0,0,0-1.62,11.09v78.73H341.72Z"/><path class="cls-11" d="M515.42,655.45H516c3.25-4.6,7.85-10.28,11.63-14.88L566,595.39h28.68L544.1,649.23l57.63,77.11H572.78l-45.18-62.77L515.42,677.1v49.24H491.88V534.25h23.54Z"/></g></g></svg>