<svg xmlns="http://www.w3.org/2000/svg" xmlns:xlink="http://www.w3.org/1999/xlink" viewBox="0 0 421.78 272.83"><defs><style>.cls-1{fill:url(#linear-gradient);}.cls-2{fill:url(#linear-gradient-2);}</style><linearGradient id="linear-gradient" x1="-1244.37" y1="-822.24" x2="2174.94" y2="1325.33" gradientUnits="userSpaceOnUse"><stop offset="0" stop-color="blue"/><stop offset="1"/></linearGradient><linearGradient id="linear-gradient-2" x1="-1284.59" y1="-758.2" x2="2134.72" y2="1389.37" xlink:href="#linear-gradient"/></defs><title>colored logo icon</title><g id="Layer_2" data-name="Layer 2"><g id="Layer_1-2" data-name="Layer 1"><path class="cls-1" d="M421.78,48.31h-219c-82.9,0-118,36.78-118,86.19,0,54.89,36.23,90,118,90h219v48.31H206c-113.63,0-160.3-59.83-160.3-140C45.75,57.09,89.12,0,203.85,0H421.78Z"/><path class="cls-2" d="M0,224.52H219c82.9,0,118-36.78,118-86.19,0-54.9-36.23-90-118-90H0V0H215.74C329.37,0,376,59.84,376,140c0,75.76-43.37,132.85-158.1,132.85H0Z"/></g></g></svg>